# xmcd CD database file
#
# Track frame offsets:
#	150
#	15120
#	27887
#	43030
#	57150
#	71257
#	85752
#	99057
#	114427
#	129712
#	143000
#	157990
#	173627
#	187577
#	202985
#	215402
#	228395
#	243957
#	259245
#
# Disc length: 3656 seconds
#
# Revision: 0
# Processed by: cddbd v1.5.1PL0 Copyright (c) Steve Scherf et al.
# Submitted via: CDex 1.51
#
DISCID=e30e4613
DTITLE=Louis Armstrong - The Essence of Louis Armstrong
DYEAR=1900
DGENRE=Jazz
TTITLE0=WEST END BLUES
TTITLE1=DON'T JIVE ME
TTITLE2=SUGAR FOOT STRUT
TTITLE3=SKIP THE GUTTER
TTITLE4=FIREWORKS
TTITLE5=A MONDAY DATE
TTITLE6=TWO DEUCES
TTITLE7=SQUEEZE ME
TTITLE8=KNEE DROPS
TTITLE9=NO,PAPA,NO
TTITLE10=BASIN STREET BLUES
TTITLE11=NO,ONE ELSE BUT YOU
TTITLE12=BEAU KOO JACK
TTITLE13=SAVE IT,PRETTY MAMA
TTITLE14=WEATHER BIRD
TTITLE15=MUGGLES
TTITLE16=HEAR ME TALKIN' TO YA
TTITLE17=ST.JAMES INFIRMARY
TTITLE18=TIGHT LIKE THIS
EXTD=
EXTT0=
EXTT1=
EXTT2=
EXTT3=
EXTT4=
EXTT5=
EXTT6=
EXTT7=
EXTT8=
EXTT9=
EXTT10=
EXTT11=
EXTT12=
EXTT13=
EXTT14=
EXTT15=
EXTT16=
EXTT17=
EXTT18=
PLAYORDER=
